<svg width="1200" height="800" viewBox="0 0 1200 800" xmlns="http://www.w3.org/2000/svg">
  <!-- Fondo con gradiente -->
  <defs>
    <linearGradient id="bg-gradient" x1="0%" y1="0%" x2="100%" y2="100%">
      <stop offset="0%" stop-color="#2c3e50" />
      <stop offset="100%" stop-color="#1a1a2e" />
    </linearGradient>
    
    <!-- Patrón de dados -->
    <pattern id="dice-pattern" x="0" y="0" width="200" height="200" patternUnits="userSpaceOnUse">
      <!-- Dado 1 -->
      <rect x="20" y="20" width="50" height="50" rx="10" fill="#f5f5f5" stroke="#ddd" stroke-width="2" opacity="0.7" />
      <circle cx="45" cy="45" r="5" fill="#333" />
      
      <!-- Dado 2 -->
      <rect x="120" y="40" width="50" height="50" rx="10" fill="#f5f5f5" stroke="#ddd" stroke-width="2" opacity="0.7" transform="rotate(15)" />
      <circle cx="130" cy="50" r="5" fill="#333" transform="rotate(15)" />
      <circle cx="150" cy="70" r="5" fill="#333" transform="rotate(15)" />
      
      <!-- Dado 3 -->
      <rect x="30" y="100" width="50" height="50" rx="10" fill="#f5f5f5" stroke="#ddd" stroke-width="2" opacity="0.7" transform="rotate(-10)" />
      <circle cx="40" cy="110" r="5" fill="#333" transform="rotate(-10)" />
      <circle cx="55" cy="125" r="5" fill="#333" transform="rotate(-10)" />
      <circle cx="70" cy="140" r="5" fill="#333" transform="rotate(-10)" />
      
      <!-- Dado 4 -->
      <rect x="120" y="120" width="50" height="50" rx="10" fill="#f5f5f5" stroke="#ddd" stroke-width="2" opacity="0.7" transform="rotate(5)" />
      <circle cx="130" cy="130" r="5" fill="#333" transform="rotate(5)" />
      <circle cx="160" cy="130" r="5" fill="#333" transform="rotate(5)" />
      <circle cx="130" cy="160" r="5" fill="#333" transform="rotate(5)" />
      <circle cx="160" cy="160" r="5" fill="#333" transform="rotate(5)" />
    </pattern>
    
    <!-- Cubilete -->
    <g id="cubilete">
      <path d="M50,0 C60,0 70,5 75,15 L90,50 C95,60 95,70 90,80 L75,115 C70,125 60,130 50,130 L40,130 C30,130 20,125 15,115 L0,80 C-5,70 -5,60 0,50 L15,15 C20,5 30,0 40,0 Z" fill="#8B4513" />
      <path d="M50,10 C58,10 65,14 69,22 L82,50 C86,58 86,66 82,74 L69,102 C65,110 58,114 50,114 L40,114 C32,114 25,110 21,102 L8,74 C4,66 4,58 8,50 L21,22 C25,14 32,10 40,10 Z" fill="#A0522D" />
    </g>
  </defs>
  
  <!-- Fondo principal -->
  <rect width="100%" height="100%" fill="url(#bg-gradient)" />
  
  <!-- Capa de patrón de dados con opacidad -->
  <rect width="100%" height="100%" fill="url(#dice-pattern)" opacity="0.15" />
  
  <!-- Elementos decorativos -->
  <use href="#cubilete" transform="translate(200, 150) scale(1.2) rotate(15)" opacity="0.25" />
  <use href="#cubilete" transform="translate(900, 500) scale(1.5) rotate(-20)" opacity="0.25" />
  
  <!-- Dados grandes decorativos -->
  <rect x="300" y="400" width="100" height="100" rx="20" fill="#f5f5f5" stroke="#ddd" stroke-width="4" opacity="0.2" transform="rotate(25, 350, 450)" />
  <rect x="800" y="200" width="120" height="120" rx="24" fill="#f5f5f5" stroke="#ddd" stroke-width="4" opacity="0.2" transform="rotate(-15, 860, 260)" />
  
  <!-- Líneas decorativas -->
  <line x1="0" y1="0" x2="1200" y2="800" stroke="#f5f5f5" stroke-width="1" opacity="0.05" />
  <line x1="1200" y1="0" x2="0" y2="800" stroke="#f5f5f5" stroke-width="1" opacity="0.05" />
</svg>